<?xml version="1.0" encoding="utf-8"?>
<!-- Generator: Adobe Illustrator 19.2.1, SVG Export Plug-In . SVG Version: 6.00 Build 0)  -->
<svg version="1.1" id="Layer_1" xmlns="http://www.w3.org/2000/svg" xmlns:xlink="http://www.w3.org/1999/xlink" x="0px" y="0px"
	 viewBox="0 0 500 700" style="enable-background:new 0 0 500 700;" xml:space="preserve">
<style type="text/css">
	.st0{opacity:0.7;fill:#F15B5D;}
	.st1{opacity:0.44;fill:#F15B5D;}
	.st2{fill:#48C2C5;stroke:#48C2C5;stroke-width:4;stroke-miterlimit:10;}
	.st3{fill:#FFFFFF;stroke:#000000;stroke-miterlimit:10;}
</style>
<path class="st0" d="M474.8,700H25.2C11.3,700,0,688.7,0,674.8V25.2C0,11.3,11.3,0,25.2,0h449.6C488.7,0,500,11.3,500,25.2v649.6
	C500,688.7,488.7,700,474.8,700z"/>
<g id="GwqDNM.tif">
	
		<image style="overflow:visible;" width="1578" height="1041" id="Layer_0_1_" xlink:href="D0DB6FA1F6A31AE8.png"  transform="matrix(0.3169 0 0 0.3169 0 318.45)">
	</image>
</g>
<path class="st1" d="M474.8,700H25.2C11.3,700,0,688.7,0,674.8V25.2C0,11.3,11.3,0,25.2,0h449.6C488.7,0,500,11.3,500,25.2v649.6
	C500,688.7,488.7,700,474.8,700z"/>
<polyline class="st2" points="82.2,239.2 144.6,331 95.5,285.8 102,318.4 39.9,253.5 82.4,277.4 82.5,238.6 "/>
<polyline class="st2" points="245.7,287.2 268.1,207.6 265.4,259.5 280.6,242 272.9,310.8 266.8,271.9 245.2,287.3 "/>
<polyline class="st2" points="470.7,236.3 375,334.1 429.9,293.4 402.6,334.4 478,272.3 441.8,287.3 471.1,235.1 "/>
<g>
	<g>
		<path d="M55.4,54.8h8.7v33.9h9.3V54.8H82v83.3h-8.7v-37.5h-9.3v37.5h-8.7V54.8z"/>
		<path d="M88.5,54.8h8.7v83.3h-8.7V54.8z"/>
		<path d="M102.1,118.4v-4.8h8.2v5.7c0,6,1.7,8.1,4.5,8.1c2.8,0,4.5-2.1,4.5-8.3c0-6.9-1.7-11.3-7.4-18.8c-7.2-9.6-9.6-16.4-9.6-26
			c0-13.1,4.5-20.7,12.9-20.7s12.6,7.6,12.6,21V78h-8.2v-4.3c0-6-1.6-8.2-4.3-8.2c-2.8,0-4.3,2.3-4.3,8c0,6.1,1.8,10.5,7.5,18
			c7.2,9.6,9.5,16.3,9.5,26.7c0,13.6-4.6,21.2-13.1,21.2C106.3,139.3,102.1,131.7,102.1,118.4z"/>
		<path d="M139.6,66.7h-9V54.8h26.7v11.9h-9v71.4h-8.7V66.7z"/>
		<path d="M160.5,118.4V74.5c0-13.3,4.6-21,13.1-21c8.5,0,13.1,7.6,13.1,21v43.8c0,13.3-4.6,21-13.1,21
			C165.1,139.3,160.5,131.7,160.5,118.4z M178.1,119.2V73.7c0-6-1.7-8.2-4.5-8.2c-2.8,0-4.5,2.3-4.5,8.2v45.5c0,6,1.7,8.2,4.5,8.2
			C176.4,127.4,178.1,125.1,178.1,119.2z"/>
		<path d="M192.6,54.8h12.8c9,0,12.8,6.3,12.8,19.2v5.1c0,8.6-1.8,14-5.7,16.4v0.2c4.3,2,5.7,8.2,5.7,17.6V128c0,4,0.1,7,0.9,10.1
			h-8.8c-0.5-2.1-0.8-3.5-0.8-10.2v-15.2c0-7.7-1.5-10.2-5.4-10.2h-3v35.7h-8.7V54.8z M204.4,90.5c3.2,0,5.2-2.1,5.2-8.8v-6.4
			c0-6-1.3-8.6-4.4-8.6h-3.9v23.8H204.4z"/>
		<path d="M224.3,54.8h8.7v83.3h-8.7V54.8z"/>
		<path d="M238.8,118.8V74.1c0-12.9,4.4-20.5,12.7-20.5s12.7,7.6,12.7,20.5v8.8h-8.2v-9.6c0-5.5-1.7-7.7-4.3-7.7s-4.3,2.3-4.3,7.7
			v46.5c0,5.5,1.7,7.6,4.3,7.6s4.3-2.1,4.3-7.6V107h8.2v11.8c0,12.9-4.4,20.5-12.7,20.5S238.8,131.7,238.8,118.8z"/>
		<path d="M276.2,54.8h11.7l9,83.3h-8.7l-1.6-16.5v0.2h-9.8l-1.6,16.3h-8L276.2,54.8z M285.6,110.5l-3.9-41.2h-0.2l-3.8,41.2H285.6z
			"/>
		<path d="M301,54.8h8.7v71.4h14.2v11.9H301V54.8z"/>
		<path d="M340.7,54.8h13.2c8.7,0,12.9,7.3,12.9,20.6v42.1c0,13.3-4.2,20.6-12.9,20.6h-13.2V54.8z M353.7,126.2
			c2.8,0,4.4-2.1,4.4-8.1V74.8c0-6-1.7-8.1-4.4-8.1h-4.4v59.5H353.7z"/>
		<path d="M379.1,54.8h11.7l9,83.3h-8.7l-1.6-16.5v0.2h-9.8l-1.6,16.3h-8L379.1,54.8z M388.6,110.5l-3.9-41.2h-0.2l-3.8,41.2H388.6z
			"/>
		<path d="M407.1,66.7h-9V54.8h26.7v11.9h-9v71.4h-8.7V66.7z"/>
		<path d="M432,54.8h11.7l9,83.3h-8.7l-1.6-16.5v0.2h-9.8l-1.6,16.3h-8L432,54.8z M441.5,110.5l-3.9-41.2h-0.2l-3.8,41.2H441.5z"/>
	</g>
	<g>
		<path class="st3" d="M49.3,51.5h8.7v33.9h9.3V51.5h8.7v83.3h-8.7V97.3h-9.3v37.5h-8.7V51.5z"/>
		<path class="st3" d="M82.3,51.5H91v83.3h-8.7V51.5z"/>
		<path class="st3" d="M95.9,115v-4.8h8.2v5.7c0,6,1.7,8.1,4.5,8.1c2.8,0,4.5-2.1,4.5-8.3c0-6.9-1.7-11.3-7.4-18.8
			c-7.2-9.6-9.6-16.4-9.6-26c0-13.1,4.5-20.7,12.9-20.7s12.6,7.6,12.6,21v3.5h-8.2v-4.3c0-6-1.6-8.2-4.3-8.2c-2.8,0-4.3,2.3-4.3,8
			c0,6.1,1.8,10.5,7.5,18c7.2,9.6,9.5,16.3,9.5,26.7c0,13.6-4.6,21.2-13.1,21.2C100.2,136,95.9,128.4,95.9,115z"/>
		<path class="st3" d="M133.4,63.4h-9V51.5h26.7v11.9h-9v71.4h-8.7V63.4z"/>
		<path class="st3" d="M154.4,115V71.2c0-13.3,4.6-21,13.1-21c8.5,0,13.1,7.6,13.1,21V115c0,13.3-4.6,21-13.1,21
			C159,136,154.4,128.4,154.4,115z M172,115.9V70.4c0-6-1.7-8.2-4.5-8.2c-2.8,0-4.5,2.3-4.5,8.2v45.5c0,6,1.7,8.2,4.5,8.2
			C170.2,124.1,172,121.8,172,115.9z"/>
		<path class="st3" d="M186.4,51.5h12.8c9,0,12.8,6.3,12.8,19.2v5.1c0,8.6-1.8,14-5.7,16.4v0.2c4.3,2,5.7,8.2,5.7,17.6v14.6
			c0,4,0.1,7,0.9,10.1h-8.8c-0.5-2.1-0.8-3.5-0.8-10.2v-15.2c0-7.7-1.5-10.2-5.4-10.2h-3v35.7h-8.7V51.5z M198.2,87.2
			c3.2,0,5.2-2.1,5.2-8.8V72c0-6-1.3-8.6-4.4-8.6h-3.9v23.8H198.2z"/>
		<path class="st3" d="M218.1,51.5h8.7v83.3h-8.7V51.5z"/>
		<path class="st3" d="M232.7,115.5V70.8c0-12.9,4.4-20.5,12.7-20.5s12.7,7.6,12.7,20.5v8.8H250v-9.6c0-5.5-1.7-7.7-4.3-7.7
			s-4.3,2.3-4.3,7.7v46.5c0,5.5,1.7,7.6,4.3,7.6s4.3-2.1,4.3-7.6v-12.7h8.2v11.8c0,12.9-4.4,20.5-12.7,20.5S232.7,128.4,232.7,115.5
			z"/>
		<path class="st3" d="M270,51.5h11.7l9,83.3h-8.7l-1.6-16.5v0.2h-9.8l-1.6,16.3h-8L270,51.5z M279.5,107.2L275.6,66h-0.2l-3.8,41.2
			H279.5z"/>
		<path class="st3" d="M294.9,51.5h8.7v71.4h14.2v11.9h-22.9V51.5z"/>
		<path class="st3" d="M334.5,51.5h13.2c8.7,0,12.9,7.3,12.9,20.6v42.1c0,13.3-4.2,20.6-12.9,20.6h-13.2V51.5z M347.6,122.9
			c2.8,0,4.4-2.1,4.4-8.1V71.5c0-6-1.7-8.1-4.4-8.1h-4.4v59.5H347.6z"/>
		<path class="st3" d="M373,51.5h11.7l9,83.3H385l-1.6-16.5v0.2h-9.8l-1.6,16.3h-8L373,51.5z M382.4,107.2L378.6,66h-0.2l-3.8,41.2
			H382.4z"/>
		<path class="st3" d="M401,63.4h-9V51.5h26.7v11.9h-9v71.4H401V63.4z"/>
		<path class="st3" d="M425.9,51.5h11.7l9,83.3h-8.7l-1.6-16.5v0.2h-9.8l-1.6,16.3h-8L425.9,51.5z M435.4,107.2L431.5,66h-0.2
			l-3.8,41.2H435.4z"/>
	</g>
</g>
</svg>
