<?xml version="1.0" encoding="utf-8"?>
<!-- Generator: Adobe Illustrator 19.2.1, SVG Export Plug-In . SVG Version: 6.00 Build 0)  -->
<svg version="1.1" id="Layer_1" xmlns="http://www.w3.org/2000/svg" xmlns:xlink="http://www.w3.org/1999/xlink" x="0px" y="0px"
	 viewBox="0 0 500 700" style="enable-background:new 0 0 500 700;" xml:space="preserve">
<style type="text/css">
	.st0{opacity:0.33;fill:#C480B7;}
	.st1{fill:#7CCFDB;}
	.st2{fill:#C480B7;}
	.st3{fill:#231F20;}
	.st4{fill:#FFFFFF;stroke:#231F20;stroke-miterlimit:10;}
</style>
<g id="_x31_c8srM.tif">
	
		<image style="overflow:visible;" width="2320" height="1372" id="Layer_0_1_" xlink:href="C598B7F27DE00C3B.png"  transform="matrix(0.2149 0 0 0.2149 0.6681 405.1005)">
	</image>
</g>
<g id="cu1YG2.tif">
	
		<image style="overflow:visible;" width="1000" height="576" id="Layer_0_2_" xlink:href="C598B7F27DE00C39.png"  transform="matrix(-0.5431 0 0 0.7033 543.06 0)">
	</image>
</g>
<path class="st0" d="M474.8,700H25.2C11.3,700,0,688.7,0,674.8V25.2C0,11.3,11.3,0,25.2,0h449.6C488.7,0,500,11.3,500,25.2v649.6
	C500,688.7,488.7,700,474.8,700z"/>
<g>
	<g>
		<path class="st1" d="M296.5,645.2c-12.1,2.8-15.9-16.3-20.2-23.8c-2-3.5-4.7-6.7-8.3-8.6c-4.8-2.5-9.1-0.6-14.1-0.7
			c-5.5-0.1-7.6-6.2-13.3-7.1c-3.5-0.6-5.9-1-8.8-3.2c-2-1.6-3.8-3.4-5.9-5c-5.7-4.3-15.3-5.4-18.4,2.4c1.5-0.2,3-0.4,4.6-0.6
			c-5.8-9.3-11.5-18.6-17.3-27.9c-2.5-4-5.5-7.7-7.8-11.8c-3.5-6.4,3.7-8.6,7.3-12.2c4.4-4.6,6.2-11.4,5.1-17.6
			c-1.5-8.4-8.2-12-14-17.2c-3.7-3.3-5.7-7.6-7.9-11.9c-2.7-5.3-5.3-10.6-8-15.8c-3.3-6.4-6.1-16.1-14.2-17.7
			c-3.7-0.7-7.4,0.3-11.1-0.2c-5-0.7-6.2-4.3-6.4-8.8c-0.3-6.1,1-13-2.4-18.5c-3.8-6.1-11.2-6.7-17.3-9
			c-8.7-3.1-15.4-10.1-21.1-17.1c-1.6-1.9-3.5-3.8-4.7-6c-2-3.5-1-5,0.8-7.8c1.5-2.3,2.6-4.7,2.3-7.6c-0.5-5.2-5.1-9-8.6-12.4
			c-2-1.9-4.2-3.9-5.4-6.5c-1.6-3.5,0.7-6.7-0.1-10.2c-0.6-3.2-3-4.5-5.6-6c-4.3-2.5-5.1-6.4-4.6-11.2c1.1-9.8,4.8-19.5,6.4-29.3
			c1.7-9.8,2.7-19.8,3.1-29.8c0.5-11.4,0.5-23.3-1.3-34.6c-1.3-8.2-6.2-13.7-14.3-15.5c-4.6-1-9.1-0.7-13.7-0.4
			c-5.7,0.4-15.3,1.8-17.3-5.2c-3.4-11.3-3.6-24.3-3.2-36c0-1.4-1.2-2.5-2.5-2.5c-2.3,0-4.6-0.1-7-0.1c-3.2,0-3.2,5,0,5
			c2.3,0,4.6,0.1,7,0.1c-0.8-0.8-1.7-1.7-2.5-2.5c-0.3,10.2,0.3,20.3,2,30.3c1.4,8.3,3.1,14.4,12.2,15.8c9.2,1.4,19.7-2.7,28.3,1.9
			c4.9,2.6,6,7.4,6.5,12.5c0.6,5.6,0.9,11.3,1,17c0.5,21.5-2.2,43-7.8,63.8c-1.7,6.2-3.7,13.9-0.3,19.9c0.7,1.3,1.6,2.3,2.7,3.2
			c1.2,1,3.7,1.7,4.5,2.8c2.2,3,0.1,8,1.3,11.5c1.8,5.3,6.7,8.8,10.4,12.6c1.8,1.9,4,4.1,3.8,6.9c-0.3,3.5-4,5.8-4.7,9.3
			c-0.7,3.4,1.3,6.1,3.3,8.7c2.7,3.5,5.5,7,8.6,10.3c5.6,6,12.1,11.2,19.9,13.8c3.6,1.2,7.8,1.6,11,3.8c3.9,2.7,4.4,7,4.4,11.4
			c0,5.6-1,12.4,2.9,17c1.9,2.3,4.5,3.5,7.4,3.9c4.2,0.6,9.7-1.4,13.4,0.9c3.8,2.3,5.8,9,7.7,12.7c2.7,5.3,5.3,10.6,8,15.8
			c2.2,4.3,4.2,8.9,7.4,12.6c3.4,3.8,8.2,6.1,11.5,10c3.3,3.7,4.3,8.9,3,13.7c-1.5,5.3-5.3,7.4-9.2,10.7c-8.4,7-1.4,14.9,3.1,21.9
			c6.7,10.5,13.2,21.1,19.7,31.7c1.2,2,3.8,1.3,4.6-0.6c2.5-6.3,11.4,0.9,14,3.1c3.5,3,6.7,5.3,11.3,6c3.1,0.5,4.9,1.2,7.1,3.4
			c1.5,1.4,2.6,2.6,4.5,3.4c4.7,1.8,9.5-1,14.2,0c9.6,2,11.5,15.4,15.6,22.6c4,6.9,10.4,12.9,18.9,10.9
			C300.9,649.3,299.6,644.5,296.5,645.2L296.5,645.2z"/>
	</g>
</g>
<g>
	<g>
		<path class="st1" d="M231.8,474.7c2.9-11.1-8.2-17.5-13.2-25.8c-3.6-5.9-3.3-12.8-4.1-19.4c-0.8-7.2-4.9-15.3-3.1-22.5
			c0.9-3.5,3.5-7.4,7.5-7.3c3,0.1,5.6,2.7,7.9,4.3c1.6,1.1,3.3,2.3,5.2,2.9c3.5,1.2,7.8,0,10.8,2.5c4,3.5,4.5,9.6,8.2,13.4
			c2.8,2.9,7.2,5.3,11.3,3.5c1.8-0.8,3.1-2.2,4-3.9c1.2-2.2,1.1-6,3-7.8c3.7-3.5,13.2,3,17.7,3c11.4-0.1,16.7-12,20.2-21
			c2.3-5.7,4.8-12.3,11-14.7c2.9-1.1,6.6-1.4,9.1,0.8c2.4,2.1,2.8,5.9,5,8.2c5.8,6,20.6,5.6,27.5,1.7c2-1.1,3.8-2.7,4.9-4.8
			c1.6-2.9,1.1-6.5,2.9-9.2c3.2-4.8,10.6-5.8,15.3-8.8c5.6-3.5,8.7-9.2,11.7-14.9c3.4-6.6,8-14.7,16.5-14.3c1,0.1,2.3-0.8,2.4-1.8
			c1.6-10.6,4.5-20.9,9-30.6c4.5-9.6,10.5-17.9,16.9-26.3c5.2-6.9,10.5-14.9,9.4-23.9c-0.6-5.1-4.1-10.5-1.2-15.4
			c3.7-6.3,13.5-4.9,14.1,2.8c0.2,2.4,3.3,3.4,4.7,1.3c5.1-8.2,10.2-16.3,15.4-24.5c3.7-5.9,8.9-12.6,8.4-20.1
			c-0.2-3.3-1.8-5.1-3.1-7.9c-2.2-4.7,0.4-9.9,1.9-14.6c2.8-9,5.7-18,8.5-27.1c3.8-12.3,8.1-31.6-6-39.4c-3.4-1.9-6.9-2.2-9.2-5.8
			c-2.2-3.4-3.9-7.3-5.8-11c-4.5-8.6-8.9-17.2-13.4-25.8c-1.5-2.9-5.8-0.3-4.3,2.5c4.2,8,8.4,16,12.5,24c2.8,5.3,5.2,12.9,10.1,16.6
			c2.6,1.9,5.8,2.4,8.4,4.2c3.3,2.2,5,5.8,5.9,9.6c2,9.1-1.6,18.7-4.3,27.3c-2.6,8.4-5.3,16.8-7.9,25.2c-1,3.2-2.5,6.5-2.7,9.8
			c-0.2,3.2,1.2,5.2,2.6,7.9c4.5,8.3-2.7,16.5-7,23.4c-4.8,7.6-9.6,15.2-14.3,22.9c1.6,0.4,3.1,0.8,4.7,1.3
			c-0.7-9.5-11.3-15.5-19.4-9.7c-11.5,8-0.8,20.2-4.3,30.6c-2.2,6.4-6.9,11.8-11,17.1c-4,5.1-7.6,10.4-10.7,16.1
			c-6.4,11.8-10.6,24.6-12.6,37.9c0.8-0.6,1.6-1.2,2.4-1.8c-12.5-0.7-17.9,11.7-23,20.8c-3.7,6.5-8.2,9.5-14.8,12.5
			c-4.3,1.9-8.8,4.2-10.8,8.7c-1.2,2.6-0.9,5.9-2.6,8.3c-1.8,2.7-5.3,3.6-8.4,3.9c-2.5,0.3-5.1,0.2-7.6,0c-4.9-0.4-7.9-1.7-10.1-6.3
			c-4.6-9.5-16.2-9.6-23.4-2.5c-8.5,8.3-8.1,27.9-21.3,31.2c-6.1,1.5-11.4-3.8-17.4-3.7c-4.6,0.1-7.2,3.4-8.5,7.5
			c-0.6,1.9-0.6,3.1-2.3,4.5c-2.1,1.7-3.8,0.9-5.8-0.9c-2.4-2.2-3.3-5.3-4.7-8.1c-2.2-4.3-5-7.9-10-8.8c-3.6-0.6-6.6-0.4-9.8-2.5
			c-2.3-1.5-4.4-3.4-6.9-4.6c-4.2-1.9-8.8-1.4-12.3,1.7c-4.7,4.2-5.7,10.6-4.9,16.6c0.5,3.7,1.7,7.3,2.4,10.9
			c0.9,4.2,1,8.5,1.4,12.8c0.7,6.9,2.8,12.5,7.2,17.8c4,4.9,11.4,10.5,9.6,17.6C226.1,476.5,231,477.8,231.8,474.7L231.8,474.7z"/>
	</g>
</g>
<g>
	<g>
		<path class="st1" d="M341.1,371.2c4.1-6.2,10.9-10.1,18.3-9.9c5.1,0.1,8.9,0,11.5-5.1c2.9-5.7,2.9-12.5,5.5-18.3
			c2.7-6.1,8.1-8.7,14-10.9c9.4-3.4,18.9-6.9,21.3-17.9c2.2-10.2-3.6-27.8,8.3-33.4c2.9-1.4,0.4-5.7-2.5-4.3
			c-10.3,4.9-10.2,17.4-10,27.1c0.1,7.2-0.5,14.5-7,18.8c-4.7,3.1-10.6,4.3-15.7,6.5c-4.8,2.1-9,4.9-11.7,9.5
			c-3.2,5.4-3.8,11.6-5.6,17.4c-0.8,2.6-1.8,4.9-4.8,5.7c-1.4,0.4-3.5-0.2-4.9-0.2c-3,0.1-5.8,0.8-8.6,1.9
			c-5.3,2.1-9.5,5.8-12.6,10.5C335,371.3,339.3,373.8,341.1,371.2L341.1,371.2z"/>
	</g>
</g>
<g>
	<g>
		<path class="st1" d="M278.8,594.9c-3.3,1-6.9,2.3-10.4,1.7c-4.5-0.8-5.5-3.3-6-7.3c-0.6-4-3.8-5.6-7.4-6.9
			c-5.8-2.1-12.9-2.2-17.3-7c-3.8-4.1-4.9-10.6-2.6-15.7c2.4-5.1,5.2-7.8,4.6-13.8c-0.4-3.9-0.6-5.8,3.5-7.9c1.6-0.8,2.7-1.3,3.5-3
			c1.7-3.6,1.3-9.3,0.9-13.2c-0.5-4.4-2-8.2-5.2-11.2c-2.3-2.2-5.8,1.3-3.5,3.5c2.6,2.5,3.6,5.6,3.8,9.1c0.2,2.2,0.8,7.1-0.4,9
			c-1.2,1.9-4.6,2-6.2,3.9c-1.2,1.5-1.7,3.5-1.8,5.4c-0.2,3.9,1.4,6.7-0.5,10.6c-1.1,2.3-2.8,4.1-3.7,6.5c-1.7,4.6-1.5,9.7,0.3,14.2
			c1.7,4.2,4.7,7.7,8.8,9.8c4.6,2.4,16.5,2.5,18.3,7.9c0.7,2.1,0.3,4,1.7,6c1.2,1.8,3.1,3.2,5,4.1c5.2,2.3,10.9,0.8,16-0.8
			C283.2,598.7,281.9,593.9,278.8,594.9L278.8,594.9z"/>
	</g>
</g>
<g>
	<g>
		<path class="st2" d="M124,450c-2.8-5.7-8.2-8.4-13.8-10.7c-7.1-2.9-13.3-5.6-17.4-12.4c-7.4-12.2-7.2-27.6-13.5-40.3
			c-3.5-7-8.6-13.1-12.6-19.9c-2-3.4-3.8-7-4.6-10.8c-1.1-4.9-0.3-9.7,0.1-14.5c0.3-4.1,0.2-8-1.1-11.9c-1.5-4.5-4.9-9.6-3.3-14.5
			c2.3-6.8,9.4-10.2,10.6-17.8c1.3-8.5-3.6-16.6-8.5-23.1c-6.2-8.1-15.7-17.4-12.2-28.6c1-3.1-3.9-4.4-4.8-1.3
			c-5.7,18.5,15,29.6,19.9,45.2c1.5,4.9,0.7,9.5-2.4,13.6c-2.2,2.9-5.1,5.5-6.7,8.8c-3.6,7.7,1.7,13.9,3.3,21.3
			c1.1,5.1-0.2,10.4-0.5,15.5c-0.2,4.1,0.4,8.2,1.8,12.1c2.6,7.3,7.4,13.5,11.7,20c4.6,6.9,7.7,14.1,9.8,22.1c1.8,7,3.2,14.2,6,20.9
			c2.7,6.6,6.8,12.4,13,16c7,4,17.2,5,21,12.9C121.1,455.4,125.4,452.9,124,450L124,450z"/>
	</g>
</g>
<g>
	<g>
		<path class="st2" d="M298.2,632.3c-4-8.1-7.1-16.6-9.3-25.4c-1.5-6.2-1.5-13.9-5.4-19.2c-2.3-3.2-5.3-5.3-6.4-9.3
			c-0.9-3.2-0.8-6.5-1-9.8c-0.2-3-0.3-6.1-1.2-9c-0.9-3.1-3.1-5.4-4.3-8.3c-2.3-5.5,3.6-10.8,1.7-16.5c-2-6.2-9.4-3.7-12-8.6
			c-1.4-2.6-0.9-4.8-3.5-6.8c-2.5-1.9-4.9-2.4-5.9-5.7c-1.5-4.7-1.2-9.2-5.6-12.3c-2.6-1.8-5.1,2.5-2.5,4.3
			c3.9,2.7,2.5,10.1,5.5,13.8c2,2.5,5.3,3.1,6.8,6.2c1.1,2.3,1,4.3,3.1,6.1c1.6,1.4,3.7,1.6,5.6,2.3c5.2,1.8,3.7,4.6,2.4,8.8
			c-1.9,5.8-1.1,9.1,2.1,14.2c3.5,5.6,2.6,12.4,3.3,18.7c0.7,6.4,3.5,9.5,7.3,14.3c2.5,3.2,2.8,7.2,3.5,11.1c0.8,4.2,1.8,8.4,3,12.6
			c2.2,7.3,5,14.4,8.3,21.2C295.3,637.7,299.6,635.2,298.2,632.3L298.2,632.3z"/>
	</g>
</g>
<g>
	<g>
		<path class="st3" d="M60,56.7h17c11.9,0,17,6,17,18.2v4.9c0,8.1-2.4,13.4-7.5,15.6v0.2c5.7,1.9,7.6,7.8,7.6,16.7v13.9
			c0,3.8,0.1,6.7,1.2,9.6H83.6c-0.6-2-1-3.3-1-9.7v-14.5c0-7.4-2-9.7-7.2-9.7h-4v33.9H60V56.7z M75.6,90.6c4.3,0,6.9-2,6.9-8.4v-6.1
			c0-5.7-1.8-8.1-5.8-8.1h-5.2v22.6H75.6z"/>
		<path class="st3" d="M101.5,117.1V56.7h11.4V118c0,5.7,2.2,7.7,5.8,7.7c3.6,0,5.8-2,5.8-7.7V56.7h11v60.4
			c0,12.7-5.8,19.9-17.1,19.9C107.3,137,101.5,129.8,101.5,117.1z"/>
		<path class="st3" d="M143.7,56.7H158l11.1,47.4h0.2V56.7h10.2v79.2h-11.8l-13.7-57.8h-0.2v57.8h-10.2V56.7z"/>
		<path class="st3" d="M204.7,56.7h16.3l7.3,56.7h0.2l7.3-56.7h16.3v79.2h-10.8v-60h-0.2l-8.3,60h-9.6l-8.3-60h-0.2v60h-10V56.7z"/>
		<path class="st3" d="M259.8,117.1V75.5c0-12.7,6.1-19.9,17.4-19.9c11.2,0,17.4,7.2,17.4,19.9v41.6c0,12.7-6.1,19.9-17.4,19.9
			C266,137,259.8,129.8,259.8,117.1z M283.1,117.9V74.7c0-5.7-2.3-7.8-5.9-7.8c-3.6,0-5.9,2.1-5.9,7.8v43.2c0,5.7,2.3,7.8,5.9,7.8
			C280.9,125.7,283.1,123.5,283.1,117.9z"/>
		<path class="st3" d="M302.3,56.7h17.5c11.4,0,17.1,6.9,17.1,19.6v40c0,12.7-5.6,19.6-17.1,19.6h-17.5V56.7z M319.5,124.6
			c3.6,0,5.8-2,5.8-7.7V75.7c0-5.7-2.2-7.7-5.8-7.7h-5.8v56.6H319.5z"/>
		<path class="st3" d="M344.5,56.7h31.2V68h-19.8v20.9h15.7v11.3h-15.7v24.3h19.8v11.3h-31.2V56.7z"/>
		<path class="st3" d="M382.3,56.7h11.4v67.9h18.8v11.3h-30.3V56.7z"/>
		<path class="st3" d="M416.1,117.1v-4.5h10.8v5.4c0,5.7,2.3,7.7,5.9,7.7c3.6,0,5.9-2,5.9-7.9c0-6.6-2.3-10.7-9.8-17.9
			c-9.6-9.2-12.7-15.6-12.7-24.7c0-12.4,5.9-19.7,17.1-19.7S450,62.8,450,75.5v3.3h-10.8v-4.1c0-5.7-2.1-7.8-5.7-7.8
			c-3.6,0-5.7,2.1-5.7,7.6c0,5.8,2.4,10,9.9,17.1c9.6,9.2,12.6,15.5,12.6,25.3c0,12.9-6,20.1-17.3,20.1S416.1,129.8,416.1,117.1z"/>
	</g>
	<g>
		<path class="st4" d="M53,49.4h17c11.9,0,17,6,17,18.2v4.9c0,8.1-2.4,13.4-7.5,15.6v0.2c5.7,1.9,7.6,7.8,7.6,16.7V119
			c0,3.8,0.1,6.7,1.2,9.6H76.6c-0.6-2-1-3.3-1-9.7v-14.5c0-7.4-2-9.7-7.2-9.7h-4v33.9H53V49.4z M68.6,83.4c4.3,0,6.9-2,6.9-8.4v-6.1
			c0-5.7-1.8-8.1-5.8-8.1h-5.2v22.6H68.6z"/>
		<path class="st4" d="M94.5,109.9V49.4H106v61.3c0,5.7,2.2,7.7,5.8,7.7c3.6,0,5.8-2,5.8-7.7V49.4h11v60.4
			c0,12.7-5.8,19.9-17.1,19.9C100.3,129.8,94.5,122.5,94.5,109.9z"/>
		<path class="st4" d="M136.7,49.4h14.4l11.1,47.4h0.2V49.4h10.2v79.2h-11.8l-13.7-57.8h-0.2v57.8h-10.2V49.4z"/>
		<path class="st4" d="M197.8,49.4h16.3l7.3,56.7h0.2l7.3-56.7h16.3v79.2h-10.8v-60h-0.2l-8.3,60h-9.6l-8.3-60h-0.2v60h-10V49.4z"/>
		<path class="st4" d="M252.9,109.9V68.2c0-12.7,6.1-19.9,17.4-19.9c11.2,0,17.4,7.2,17.4,19.9v41.6c0,12.7-6.1,19.9-17.4,19.9
			C259,129.8,252.9,122.5,252.9,109.9z M276.2,110.6V67.4c0-5.7-2.3-7.8-5.9-7.8c-3.6,0-5.9,2.1-5.9,7.8v43.2c0,5.7,2.3,7.8,5.9,7.8
			C273.9,118.5,276.2,116.3,276.2,110.6z"/>
		<path class="st4" d="M295.3,49.4h17.5c11.4,0,17.1,6.9,17.1,19.6v40c0,12.7-5.6,19.6-17.1,19.6h-17.5V49.4z M312.6,117.3
			c3.6,0,5.8-2,5.8-7.7V68.5c0-5.7-2.2-7.7-5.8-7.7h-5.8v56.6H312.6z"/>
		<path class="st4" d="M337.6,49.4h31.2v11.3H349v20.9h15.7V93H349v24.3h19.8v11.3h-31.2V49.4z"/>
		<path class="st4" d="M375.3,49.4h11.4v67.9h18.8v11.3h-30.3V49.4z"/>
		<path class="st4" d="M409.1,109.9v-4.5h10.8v5.4c0,5.7,2.3,7.7,5.9,7.7c3.6,0,5.9-2,5.9-7.9c0-6.6-2.3-10.7-9.8-17.9
			c-9.6-9.2-12.7-15.6-12.7-24.7c0-12.4,5.9-19.7,17.1-19.7S443,55.6,443,68.2v3.3h-10.8v-4.1c0-5.7-2.1-7.8-5.7-7.8
			c-3.6,0-5.7,2.1-5.7,7.6c0,5.8,2.4,10,9.9,17.1c9.6,9.2,12.6,15.5,12.6,25.3c0,12.9-6,20.1-17.3,20.1
			C414.7,129.8,409.1,122.5,409.1,109.9z"/>
	</g>
</g>
</svg>
